<?xml version="1.0" encoding="utf-8"?>
<!-- Generator: Adobe Illustrator 25.1.0, SVG Export Plug-In . SVG Version: 6.00 Build 0)  -->
<svg version="1.1" id="Capa_1" xmlns="http://www.w3.org/2000/svg" xmlns:xlink="http://www.w3.org/1999/xlink" x="0px" y="0px"
	 viewBox="0 0 511 511" style="enable-background:new 0 0 511 511;" xml:space="preserve">
<style type="text/css">
	.st0{fill-rule:evenodd;clip-rule:evenodd;fill:#4C8C1E;}
</style>
<g>
	<path class="st0" d="M377.3,197c17.1,28.3,27,61.5,27,97.1c0,51.8-21,98.7-55,132.7s-80.9,55-132.7,55s-98.7-21-132.7-55
		S29,345.8,29,294s21-98.7,55-132.7s80.9-55,132.7-55c35.7,0,69,9.9,97.4,27.2l21.8-21.7c-34.2-22.4-75.2-35.5-119.2-35.5
		c-60.1,0-114.5,24.4-153.9,63.7C23.4,179.5-1,233.9-1,294s24.4,114.5,63.7,153.9c39.4,39.4,93.8,63.7,153.9,63.7
		s114.5-24.4,153.9-63.7c39.4-39.4,63.7-93.8,63.7-153.9c0-43.8-12.9-84.6-35.2-118.7L377.3,197z"/>
	<path class="st0" d="M292.4,155.1c-22.5-12.3-48.3-19.3-75.8-19.3c-43.7,0-83.3,17.7-111.9,46.3S58.4,250.3,58.4,294
		s17.7,83.3,46.4,111.9s68.2,46.4,111.9,46.4s83.3-17.7,111.9-46.4s46.3-68.2,46.3-111.9c0-27.4-6.9-53.1-19.2-75.6l-22.4,22.2
		c7.4,16.2,11.6,34.3,11.6,53.3c0,35.4-14.4,67.5-37.6,90.7c-23.2,23.2-55.3,37.6-90.7,37.6s-67.5-14.4-90.7-37.6
		s-37.6-55.3-37.6-90.7s14.4-67.5,37.6-90.7s55.3-37.6,90.7-37.6c19,0,37.1,4.2,53.4,11.6L292.4,155.1z"/>
	<path class="st0" d="M216.6,225.1c1.7,0,3.4,0.1,5.1,0.2l25.5-25.3c-9.6-3.1-19.9-4.8-30.6-4.8c-27.3,0-52,11.1-69.9,29
		s-28.9,42.6-28.9,69.9c0,27.3,11.1,52,29,69.9s42.6,28.9,69.9,28.9s52-11.1,69.9-28.9c17.9-17.9,28.9-42.6,28.9-69.9
		c0-10.7-1.7-21.1-4.9-30.7l-25.3,25.2c0.1,1.8,0.2,3.7,0.2,5.6c0,19-7.7,36.2-20.2,48.7s-29.7,20.2-48.7,20.2s-36.2-7.7-48.7-20.2
		s-20.2-29.7-20.2-48.7s7.7-36.2,20.2-48.7C180.6,232.6,198.6,225.2,216.6,225.1z"/>
	<path class="st0" d="M505.6,62.2c-2.6-2.6-5.9-4-9.2-4.3l-35.3-5.8l-7.9-38.7c-0.5-2.9-1.9-5.7-4.1-8c-5.8-5.8-15.3-5.9-21.1-0.1
		l-44.2,44c-3.1,3.1-4.6,7.2-4.4,11.3l0.2,49.8L204.8,284.3c-5.8,5.8-5.9,15.3-0.1,21.1c5.8,5.8,15.3,5.9,21.1,0.1l174.8-173.9
		l49.1,0.1c4.3,0.4,8.6-1.1,11.9-4.3l43.9-43.9C511.5,77.5,511.5,68.1,505.6,62.2z"/>
</g>
</svg>
