<?xml version="1.0" encoding="utf-8"?>
<!-- Generator: Adobe Illustrator 23.1.0, SVG Export Plug-In . SVG Version: 6.00 Build 0)  -->
<!DOCTYPE svg PUBLIC "-//W3C//DTD SVG 1.1//EN" "http://www.w3.org/Graphics/SVG/1.1/DTD/svg11.dtd" [
	<!ENTITY ns_extend "http://ns.adobe.com/Extensibility/1.0/">
	<!ENTITY ns_ai "http://ns.adobe.com/AdobeIllustrator/10.0/">
	<!ENTITY ns_graphs "http://ns.adobe.com/Graphs/1.0/">
	<!ENTITY ns_vars "http://ns.adobe.com/Variables/1.0/">
	<!ENTITY ns_imrep "http://ns.adobe.com/ImageReplacement/1.0/">
	<!ENTITY ns_sfw "http://ns.adobe.com/SaveForWeb/1.0/">
	<!ENTITY ns_custom "http://ns.adobe.com/GenericCustomNamespace/1.0/">
	<!ENTITY ns_adobe_xpath "http://ns.adobe.com/XPath/1.0/">
]>
<svg version="1.1" xmlns:x="&ns_extend;" xmlns:i="&ns_ai;" xmlns:graph="&ns_graphs;"
	 xmlns="http://www.w3.org/2000/svg" xmlns:xlink="http://www.w3.org/1999/xlink" x="0px" y="0px" viewBox="0 0 800 600"
	 style="enable-background:new 0 0 800 600;" xml:space="preserve">
<style type="text/css">
	.st0{fill:#CB4D48;}
	.st1{fill:#FFFFFF;}
</style>
<metadata>
	<sfw  xmlns="&ns_sfw;">
		<slices></slices>
		<sliceSourceBounds  bottomLeftOrigin="true" height="507.08" width="507.67" x="146.16" y="-553.54"></sliceSourceBounds>
	</sfw>
</metadata>
<g id="Layer_2">
</g>
<g id="Layer_1">
	<g>
		<circle class="st0" cx="400" cy="390.64" r="162.9"/>
		<circle class="st1" cx="400" cy="390.64" r="131.97"/>
		<circle class="st0" cx="400" cy="390.64" r="107.05"/>
		<circle class="st1" cx="399.76" cy="390.64" r="71.03"/>
		<circle class="st0" cx="400" cy="390.24" r="37.2"/>
		<g>
			<path class="st1" d="M404.23,397.87c51.04-34.53,102.09-69.05,153.13-103.58c7.4-5.01,14.8-10.01,22.2-15.02
				c8.88-6.01,0.51-20.52-8.45-14.46c-51.04,34.53-102.09,69.05-153.13,103.58c-7.4,5.01-14.8,10.01-22.2,15.02
				C386.9,389.41,395.27,403.93,404.23,397.87L404.23,397.87z"/>
		</g>
		<polygon class="st0" points="576.77,307.19 540.9,295.35 543.18,257.64 585.7,228.82 590.56,261.68 619.29,278.37 		"/>
		<path class="st0" d="M400.34,178.72c61.76,0,106.43,15.51,145.16,57.67l108.33-78.53C590.93,89.39,500.65,46.46,400.34,46.46
			c-100.67,0-191.24,43.23-254.18,112.13l97.67,89.17C282.59,205.34,338.36,178.72,400.34,178.72z"/>
		<g>
			<path class="st1" d="M282.89,170.38l-20.25-50.05l9.97-4.03l26.19,30.65c2.43,2.86,4.22,5.01,5.39,6.44
				c-0.17-2.05-0.36-5.08-0.58-9.1l-2.1-39.67l8.91-3.6l20.25,50.05l-6.38,2.58l-16.95-41.89l2.4,47.78l-5.98,2.42l-31.72-36.75
				l17.24,42.61L282.89,170.38z"/>
			<path class="st1" d="M341.39,149.58l-11.93-52.66l6.97-1.58L348.36,148L341.39,149.58z"/>
			<path class="st1" d="M355,128.2l6.66-1.17c0.55,2.66,1.48,4.81,2.79,6.43c1.31,1.63,3.24,2.86,5.77,3.72
				c2.54,0.85,5.34,1.15,8.39,0.88c2.72-0.24,5.08-0.85,7.09-1.83c2.01-0.99,3.46-2.23,4.36-3.72c0.89-1.49,1.27-3.07,1.13-4.74
				c-0.15-1.69-0.76-3.12-1.85-4.29c-1.09-1.18-2.79-2.09-5.12-2.76c-1.49-0.44-4.76-1.04-9.8-1.8c-5.04-0.76-8.6-1.58-10.67-2.46
				c-2.68-1.12-4.74-2.63-6.18-4.51c-1.43-1.89-2.25-4.06-2.47-6.53c-0.23-2.72,0.32-5.32,1.65-7.81c1.34-2.49,3.43-4.48,6.29-5.96
				c2.85-1.48,6.09-2.37,9.71-2.69c3.99-0.34,7.56-0.01,10.72,1.02c3.16,1.02,5.66,2.71,7.51,5.06c1.85,2.35,2.98,5.1,3.37,8.25
				l-6.78,1.1c-0.66-3.37-2.12-5.83-4.39-7.38c-2.27-1.55-5.47-2.15-9.6-1.8c-4.31,0.37-7.38,1.43-9.21,3.18
				c-1.83,1.75-2.65,3.74-2.46,5.96c0.17,1.93,1,3.46,2.5,4.59c1.48,1.13,5.17,2.1,11.06,2.91s9.97,1.61,12.2,2.4
				c3.26,1.17,5.72,2.8,7.41,4.89c1.68,2.09,2.65,4.57,2.9,7.46c0.25,2.86-0.34,5.63-1.76,8.3c-1.42,2.67-3.6,4.85-6.55,6.52
				c-2.95,1.67-6.34,2.67-10.18,3c-4.87,0.42-9.01,0.06-12.42-1.07c-3.41-1.13-6.18-3.05-8.29-5.74
				C356.67,134.93,355.41,131.79,355,128.2z"/>
			<path class="st1" d="M408.58,142.82l2.63-53.93l7.14,0.35l-2.63,53.93L408.58,142.82z"/>
			<path class="st1" d="M429.56,116.79c1.79-8.78,5.55-15.18,11.27-19.18c5.73-4.01,12.32-5.25,19.78-3.74
				c4.88,0.99,9.05,3.06,12.5,6.19c3.44,3.13,5.77,7,6.98,11.59c1.21,4.59,1.27,9.54,0.19,14.83c-1.09,5.37-3.15,9.95-6.18,13.74
				c-3.03,3.79-6.75,6.37-11.16,7.74c-4.41,1.37-8.92,1.59-13.51,0.65c-4.98-1.01-9.19-3.12-12.62-6.33
				c-3.43-3.2-5.74-7.09-6.91-11.67C428.73,126.04,428.62,121.43,429.56,116.79z M436.76,118.37c-1.3,6.38-0.61,11.75,2.07,16.12
				c2.68,4.37,6.61,7.08,11.78,8.13c5.27,1.07,9.98,0.1,14.14-2.91c4.16-3.01,6.93-7.92,8.32-14.73c0.88-4.31,0.91-8.21,0.11-11.72
				c-0.8-3.51-2.43-6.43-4.87-8.77c-2.44-2.34-5.41-3.86-8.9-4.57c-4.96-1.01-9.57-0.17-13.84,2.5
				C441.33,105.08,438.38,110.4,436.76,118.37z M456.61,90.65l6.86-9.13l8.52,1.74l-10,8.49L456.61,90.65z"/>
			<path class="st1" d="M480.88,155.28l21.96-49.33l6.7,2.98l8.66,50.26l17.24-38.73l6.26,2.79l-21.96,49.33l-6.69-2.98l-8.65-50.3
				l-17.26,38.76L480.88,155.28z"/>
		</g>
	</g>
</g>
</svg>
