<svg xmlns="http://www.w3.org/2000/svg" viewBox="0 0 69 69" id="mission-achieved"><path fill="#71C7E5" d="M53.674 16.577a2.314 2.314 0 0 1-2.316-2.317 2.3 2.3 0 0 1 1.76-2.244 2.679 2.679 0 0 1 2.657-2.328c.484 0 .927.124 1.308.34a3.05 3.05 0 0 1 2.646-1.513c1.277 0 2.378.782 2.821 1.905h.02c1.154 0 2.112.803 2.348 1.884a2.184 2.184 0 0 1-.648 4.273H53.674zM7.506 13.094a2.772 2.772 0 0 1-2.776-2.776c0-1.308.9-2.406 2.11-2.69a3.21 3.21 0 0 1 3.183-2.788c.58 0 1.11.148 1.567.407a3.655 3.655 0 0 1 3.17-1.814c1.53 0 2.851.938 3.382 2.283h.024c1.382 0 2.53.962 2.814 2.258a2.618 2.618 0 0 1-.778 5.12H7.506z"></path><path fill="#EFEFEF" d="m44.956 19.811-1.86 2.149 1.86 2.149h-5.228v-4.298zM34.499 18.571h5.228v4.298h-5.228z"></path><path fill="#FA8465" d="M54.864 65.565H14.135l10.038-18.56 5.163-9.554.279-.512 4.884-9.042 4.801 8.884.232.437 5.294 9.787z"></path><path fill="#EFEFEF" d="M39.532 37.218 36.9 35.767l-2.401 3.526-2.27-3.59-2.893 1.748.279-.512 4.884-9.042 4.801 8.884z"></path><path fill="#71C7E5" d="M4.75 65.567h9.41l10.03-18.56-1.36-2.51-3.34-6.2-3.31 6.13z"></path><path fill="#EFEFEF" d="m16.485 43.866-.375.682 3.407 2.75 3.313-2.801-3.34-6.2z"></path><path fill="#71C7E5" d="M64.27 65.567h-9.41l-10.03-18.56 1.36-2.51 3.34-6.2 3.31 6.13z"></path><path fill="#EFEFEF" d="m52.535 43.866.375.682-3.407 2.75-3.313-2.801 3.34-6.2z"></path><path fill="#414141" d="M66.5 65.067h-1.932l-8.485-15.755a.501.501 0 0 0-.88.474l8.23 15.281h-8.269l-9.766-18.062.935-1.731 2.847 2.406a.501.501 0 0 0 .638.006l2.914-2.374.112.207a.501.501 0 0 0 .88-.473l-3.183-5.918-.571-1.067a.5.5 0 0 0-.44-.264.502.502 0 0 0-.441.263l-.961 1.784-3.299 6.109C40.415 37.777 38.077 33.464 35 27.77v-4.402h4.229v.74a.5.5 0 0 0 .5.5H44.976a.5.5 0 0 0 .287-.91l-1.506-1.74 1.577-1.821a.501.501 0 0 0-.378-.827h-4.728v-.74a.5.5 0 0 0-.5-.5H34.52c-.008 0-.014-.004-.022-.004a.5.5 0 0 0-.5.5v9.204L24.18 45.933l-4.25-7.873a.5.5 0 0 0-.88.001l-3.755 6.985a.5.5 0 1 0 .88.473l.112-.207 2.914 2.374a.498.498 0 0 0 .639-.006l2.847-2.406.924 1.712-9.775 18.081H5.588l8.23-15.28a.5.5 0 0 0-.88-.475L4.451 65.067H2.5a.5.5 0 1 0 0 1h64a.5.5 0 1 0 0-1zM52.242 44.421l-2.733 2.227-2.687-2.27 2.258-4.193.448-.83.245.456 2.47 4.61zm-30.045-.044-2.686 2.271-2.734-2.227 2.714-5.065 2.706 5.021zm16.092-8.415-1.148-.633a.5.5 0 0 0-.655.157l-1.971 2.896-1.864-2.946a.501.501 0 0 0-.681-.16l-1.318.795 3.847-7.123 3.79 7.014zm-8.58 1.848 2.358-1.426 2.01 3.176a.5.5 0 0 0 .413.233h.009c.165 0 .32-.082.413-.22l2.145-3.148 2.114 1.165 14.854 27.475H14.994L29.708 37.81zm14.153-17.5-1.144 1.323a.499.499 0 0 0 0 .654l1.144 1.322h-3.634V20.31h3.634zm-4.634-.5v2.559h-4.229V19.07h4.229v.74zm14.446-2.733h1.74a.5.5 0 1 0 0-1h-1.74a1.818 1.818 0 0 1-1.817-1.817 1.79 1.79 0 0 1 1.375-1.758.5.5 0 0 0 .382-.42 2.185 2.185 0 0 1 3.223-1.619.5.5 0 0 0 .679-.184 2.558 2.558 0 0 1 2.213-1.264c1.05 0 1.975.623 2.356 1.588.075.191.28.317.485.317.903 0 1.667.613 1.86 1.49a.499.499 0 0 0 .34.371c.713.222 1.193.87 1.193 1.613a1.69 1.69 0 0 1-1.693 1.683h-3.707a.5.5 0 1 0 0 1h3.707a2.691 2.691 0 0 0 2.693-2.683 2.675 2.675 0 0 0-1.63-2.47 2.879 2.879 0 0 0-2.452-1.987 3.507 3.507 0 0 0-3.152-1.922 3.573 3.573 0 0 0-2.822 1.38 3.192 3.192 0 0 0-4.225 2.23 2.79 2.79 0 0 0-1.825 2.635 2.82 2.82 0 0 0 2.817 2.817z"></path><path fill="#414141" d="M57.474 16.077a.5.5 0 1 0 0 1h1.03a.5.5 0 1 0 0-1h-1.03zM7.506 13.594H9.59a.5.5 0 1 0 0-1H7.506a2.279 2.279 0 0 1-2.277-2.276c0-1.059.71-1.965 1.725-2.203a.5.5 0 0 0 .382-.421 2.717 2.717 0 0 1 4.007-2.013.5.5 0 0 0 .68-.184 3.167 3.167 0 0 1 2.738-1.564c1.3 0 2.444.772 2.916 1.966.075.191.284.317.489.317 1.129 0 2.085.767 2.325 1.865a.499.499 0 0 0 .34.37 2.116 2.116 0 0 1 1.5 2.027 2.124 2.124 0 0 1-2.129 2.116h-4.441a.5.5 0 1 0 0 1h4.441a3.126 3.126 0 0 0 3.128-3.116c0-1.279-.767-2.405-1.934-2.885a3.354 3.354 0 0 0-2.922-2.362 4.103 4.103 0 0 0-3.713-2.298 4.179 4.179 0 0 0-3.348 1.674 3.718 3.718 0 0 0-5.01 2.628 3.242 3.242 0 0 0-2.174 3.083 3.28 3.28 0 0 0 3.277 3.276z"></path><path fill="#414141" d="M13.293 12.594h-1.234a.5.5 0 1 0 0 1h1.234a.5.5 0 1 0 0-1zm.736 35.742a.5.5 0 0 0 .677-.204l.549-1.02a.5.5 0 0 0-.881-.475l-.549 1.021a.5.5 0 0 0 .204.678zm39.94-1.902a.5.5 0 0 0-.203.677l.547 1.02a.5.5 0 1 0 .881-.472l-.548-1.021a.5.5 0 0 0-.676-.204z"></path></svg>