<?xml version="1.0" encoding="utf-8"?>
<!-- Generator: Adobe Illustrator 25.1.0, SVG Export Plug-In . SVG Version: 6.00 Build 0)  -->
<svg version="1.1" id="Capa_1" xmlns="http://www.w3.org/2000/svg" xmlns:xlink="http://www.w3.org/1999/xlink" x="0px" y="0px"
	 viewBox="0 0 512 512" style="enable-background:new 0 0 512 512;" xml:space="preserve">
<style type="text/css">
	.st0{fill:#4C8C1E;}
</style>
<g>
	<path class="st0" d="M271,45V15c0-8.3-6.7-15-15-15s-15,6.7-15,15v30c0,8.3,6.7,15,15,15C264.3,60,271,53.3,271,45z"/>
	<path class="st0" d="M148.2,83.9c7.5-3.5,10.8-12.4,7.3-19.9l-12.7-27.2c-3.5-7.5-12.4-10.8-19.9-7.3c-7.5,3.5-10.8,12.4-7.3,19.9
		l12.7,27.2C131.8,84.2,140.8,87.4,148.2,83.9z"/>
	<path class="st0" d="M58.8,131l-23-19.3c-6.3-5.3-15.8-4.5-21.1,1.8s-4.5,15.8,1.8,21.1l23,19.3c6.3,5.3,15.8,4.5,21.1-1.8
		C66,145.7,65.2,136.3,58.8,131z"/>
	<path class="st0" d="M383.7,76.6l12.7-27.2c3.5-7.5,0.3-16.4-7.3-19.9c-7.5-3.5-16.4-0.3-19.9,7.3L356.5,64
		c-3.5,7.5-0.3,16.4,7.3,19.9C371.2,87.4,380.2,84.2,383.7,76.6z"/>
	<path class="st0" d="M497.3,113.5c-5.3-6.3-14.8-7.2-21.1-1.8l-23,19.3c-6.3,5.3-7.2,14.8-1.8,21.1c5.3,6.3,14.8,7.2,21.1,1.8
		l23-19.3C501.8,129.3,502.6,119.9,497.3,113.5z"/>
	<path class="st0" d="M106.1,151c-0.1,0-8-0.3-12.6,6.8c-8.3,12.3-51.5,77.2-60,89.9c-3.8,5.7-3.2,13.2,1.2,18.2l210,241
		c2.8,3.3,7,5.1,11.3,5.1c4.3,0,8.5-1.9,11.3-5.1l210-241c4.3-4.9,5-12.4,1.2-18.2l-59.9-89.9c-2.8-4.3-7.6-6.8-12.6-6.8
		C406,151,106.1,151,106.1,151L106.1,151z M438,241h-64l32-48L438,241z M202.2,241l53.8-53.8l53.8,53.8H202.2z M324.4,271L256,453.3
		L187.6,271H324.4z M213.5,425.4L79,271h76.6L213.5,425.4z M356.4,271H433L298.5,425.4L356.4,271z M343.7,232.5L292.2,181H378
		L343.7,232.5z M168.3,232.5L134,181h85.8L168.3,232.5z M138,241H74l32-48L138,241z"/>
</g>
</svg>
